# Blender 4.2.2 LTS
# www.blender.org
mtllib nave.mtl
o Cube
v 4.829295 -0.019944 -0.661625
v 5.782228 -1.147025 -0.500282
v 4.829295 -0.019944 0.626708
v 5.782228 -1.147025 0.454984
v -4.829295 0.635064 -4.946921
v -4.829295 -0.797228 -1.155848
v -4.829295 0.683531 4.921546
v -4.879187 -0.795753 1.139421
v 0.000000 -0.737982 -1.155848
v 0.000000 0.529281 1.155848
v 0.000000 -0.737982 1.155848
v 0.000000 0.529281 -1.155848
v 2.414647 -0.737982 1.155848
v 2.414647 0.354731 -1.155848
v 2.414647 -0.737982 -1.155848
v 2.414647 0.354731 1.155848
v -4.854240 -0.796491 -0.008214
v 4.829295 -0.019944 0.000000
v -4.829295 1.467837 -0.012688
v 5.782228 -1.147025 0.000000
v 0.000000 -1.000000 0.000000
v 0.000000 0.937857 0.000000
v 2.414647 0.354731 0.000000
v 2.414647 -1.000000 0.000000
v -2.414647 -0.898614 -1.155848
v -2.414647 0.606406 3.038697
v -2.439593 -0.897877 1.147634
v -2.414647 0.582173 -3.051384
v -2.427120 -0.898245 -0.004107
v -2.414647 1.402829 -0.006344
v -4.829295 1.455721 -2.479805
v 5.782228 -1.147025 -0.401577
v -4.841767 -0.796859 -0.582031
v 4.829295 -0.019944 -0.401577
v 0.000000 -1.000000 -0.577924
v 0.000000 0.937857 -0.577924
v 2.414647 0.354731 -0.577924
v 2.414647 -1.000000 -0.577924
v -2.414647 1.396771 -1.528864
v -2.420884 -0.898430 -0.579977
v -4.866714 -0.796122 0.565604
v 4.829295 -0.019944 0.401577
v 0.000000 -1.000000 0.577924
v 0.000000 0.937857 0.577924
v 2.414647 0.354731 0.577924
v 2.414647 -1.000000 0.577924
v -4.829295 1.479954 2.454429
v 5.782228 -1.147025 0.401577
v -2.433357 -0.898061 0.571764
v -2.414647 1.408888 1.516176
v 5.305761 -0.460634 -0.803154
v -4.854240 -0.056111 3.030483
v 5.305761 -0.460634 0.803154
v -4.829295 -0.081082 -3.051384
v 0.000000 0.026659 -1.155848
v 0.000000 0.026659 1.155848
v 2.414647 -0.060617 1.155848
v 2.414647 -0.060617 -1.155848
v 5.305761 -0.460634 0.000000
v -4.841767 -0.068597 -0.010451
v -2.414647 -0.158221 -2.103616
v -2.427120 -0.145735 2.093165
v 5.305761 -0.460634 -0.401577
v -4.835531 -0.074839 -1.530918
v -4.848004 -0.062354 1.510016
v 5.305761 -0.460634 0.401577
v 4.737381 -0.083748 -0.401577
v 4.737381 -0.083748 0.000000
v 4.737381 -0.083748 0.401577
v 5.213847 -0.524438 0.000000
v 5.213847 -0.524438 -0.401577
v 5.213847 -0.524438 0.401577
v -5.221222 0.508344 1.962680
v -5.221104 0.498641 -0.012505
v -5.220988 0.488940 -1.987367
v -5.230710 -0.061936 -0.011090
v -5.222580 0.099381 -1.475429
v -5.233107 0.111374 1.451698
v -4.991781 -0.655910 0.967319
v -5.000360 -0.655562 1.112224
v -4.962072 -0.214065 -2.304007
v -4.959261 -0.656874 -1.131830
v -4.967865 -0.656858 -0.992561
v -4.961198 -0.211034 -1.578394
v -4.982841 -0.198015 1.556474
v -4.982088 -0.195181 2.289647
v -5.218237 0.678075 2.453790
v -5.218237 0.665958 -0.013327
v -5.218237 0.653841 -2.480444
v -5.224474 -0.068179 -1.531557
v -5.236947 -0.055693 1.509377
v -5.227844 0.105382 -0.011765
v -4.548398 0.487124 -0.011400
v -4.555138 0.093865 -0.010660
v -4.548516 0.496827 1.963786
v -4.548283 0.477423 -1.986262
v -4.549874 0.087865 -1.474324
v -4.560401 0.099857 1.452803
v -4.994626 -0.793958 0.564454
v -5.007099 -0.793590 1.138271
v -4.957207 -0.078919 -3.052534
v -4.957207 -0.795065 -1.156997
v -4.969679 -0.794696 -0.583180
v -4.963443 -0.072676 -1.532067
v -4.975916 -0.060191 1.508867
v -4.982152 -0.053948 3.029334
v -4.829381 -0.658657 0.968779
v -4.837960 -0.658308 1.113684
v -4.799672 -0.216811 -2.302547
v -4.796861 -0.659621 -1.130370
v -4.805465 -0.659605 -0.991101
v -4.798798 -0.213781 -1.576934
v -4.820441 -0.200761 1.557933
v -4.819687 -0.197928 2.291106
v 4.098438 -0.942504 0.805416
v 3.621971 0.167393 -0.908736
v 4.098438 -0.942504 -0.828065
v 3.621971 0.167393 0.891278
v 3.621971 0.167393 0.000000
v 4.098438 -1.073513 0.000000
v 4.098438 -1.073513 -0.489751
v 3.621971 0.167393 -0.489751
v 3.621971 0.167393 0.489751
v 4.098438 -1.073513 0.489751
v 3.860204 -0.260625 0.979501
v 3.860204 -0.260625 -0.979501
vn 0.2029 0.8662 0.4566
vn 0.2063 -0.7671 0.6075
vn -1.0000 0.0015 -0.0041
vn -0.0324 -0.9231 0.3831
vn 0.6790 0.7341 -0.0000
vn 0.1702 0.4633 -0.8697
vn 0.3654 -0.0000 -0.9309
vn 0.0654 -0.9979 0.0010
vn -0.0000 -0.0000 1.0000
vn 0.0721 0.9974 -0.0000
vn 0.1533 0.9882 -0.0000
vn 0.1544 0.2812 0.9471
vn -0.0000 -0.0000 -1.0000
vn -0.0000 -0.9108 0.4129
vn -0.0000 -1.0000 -0.0000
vn 0.2347 0.9721 -0.0000
vn -0.0419 -0.9991 -0.0001
vn 0.5702 -0.8215 -0.0000
vn -0.0436 -0.9990 -0.0000
vn 0.7382 -0.3576 -0.5720
vn 0.0269 0.9996 -0.0040
vn 0.1891 0.9820 -0.0000
vn -0.0419 -0.9991 -0.0003
vn -0.0418 -0.9991 -0.0003
vn 0.2116 -0.7702 -0.6017
vn 0.3603 -0.0000 0.9329
vn 0.3582 0.7624 0.5390
vn 0.3573 0.7627 -0.5392
vn 0.2030 0.8634 -0.4619
vn -0.0429 -0.9317 -0.3608
vn -0.0000 -0.9108 -0.4129
vn -0.8997 0.4364 -0.0021
vn -0.9999 0.0147 -0.0042
vn -0.5702 0.8215 -0.0000
vn 0.8215 0.5702 -0.0000
vn -0.0169 -0.9999 0.0003
vn -0.9996 0.0171 -0.0217
vn -0.0034 -0.0000 1.0000
vn -0.0331 -0.7876 -0.6153
vn 0.1788 -0.1843 0.9665
vn 0.1446 -0.3137 -0.9384
vn 0.0169 0.9998 -0.0040
vn -0.0348 -0.7819 0.6224
vn 0.0145 0.7895 -0.6136
vn 0.0171 0.9998 -0.0040
vn -0.0171 -0.9998 0.0040
vn -0.0145 -0.7894 0.6137
vn 0.0169 0.9999 0.0009
vn -0.0189 -0.7893 0.6137
vn 0.0189 0.7893 -0.6137
vn -0.0190 -0.9310 0.3644
vn 0.0080 0.7958 0.6056
vn -0.0126 -0.9354 -0.3534
vn -0.9999 0.0171 -0.0001
vn -0.9999 0.0164 -0.0001
vn -0.9999 0.0098 0.0044
vn -0.9995 0.0318 -0.0049
vn -0.9998 0.0171 -0.0037
vn -0.9998 0.0215 -0.0042
vn -0.0171 -0.9998 0.0049
vn 0.0126 0.7957 0.6055
vn -0.9975 0.0375 -0.0591
vn -0.9999 -0.0143 -0.0030
vn -0.9985 -0.0512 -0.0217
vn -0.9998 -0.0099 -0.0189
vn -0.9996 0.0293 -0.0030
vn -0.9977 0.0662 -0.0127
vn -0.9987 0.0505 0.0008
vn -0.9999 0.0130 -0.0042
vn -0.9937 0.0954 -0.0591
vn -0.9959 -0.0659 -0.0615
vn 0.0169 0.9999 -0.0014
vn -0.0169 -0.9998 0.0042
vn 0.0190 0.9311 -0.3643
vn -0.0080 -0.7957 -0.6056
vn 0.0126 0.9354 0.3533
vn -0.0169 -0.9998 0.0039
vn 0.1704 -0.1565 -0.9729
vn 0.1471 -0.3643 0.9196
vn -0.0302 -0.9104 -0.4127
vn 0.1741 0.5225 0.8347
vn 0.1504 0.2422 -0.9585
vn -0.0247 -0.9105 0.4128
vn 0.2606 0.9188 0.2966
vn 0.2444 -0.9042 0.3504
vn -1.0000 -0.0000 -0.0000
vn 0.2344 0.2842 -0.9297
vn 0.4224 -0.7143 -0.5580
vn -0.0392 -0.9101 0.4126
vn 0.1935 0.8011 0.5664
vn 0.2141 -0.0000 0.9768
vn -0.0419 -0.9991 -0.0000
vn -0.0126 -0.7957 -0.6055
vn 0.0263 0.9996 -0.0049
vn 0.1882 0.9821 -0.0039
vn 0.2489 -0.9060 -0.3423
vn 0.4160 -0.7143 0.5627
vn 0.3648 0.8237 0.4341
vn -0.0420 -0.9991 -0.0001
vn 0.3631 0.8216 -0.4396
vn 0.2594 0.9164 -0.3048
vn 0.0605 -0.9091 -0.4122
vn 0.1935 0.8011 -0.5664
vn 0.1900 0.9818 -0.0039
vn -0.9998 0.0185 0.0060
vn 0.0275 0.9996 -0.0049
vn -1.0000 0.0032 -0.0041
vn 0.2831 -0.7524 0.5948
vn 0.1082 -0.9300 -0.3513
vn -0.9995 0.0309 -0.0042
vn 0.1211 -0.0000 0.9926
vn 0.2891 -0.7544 -0.5893
vn 0.0938 -0.1845 -0.9783
vn 0.1052 -0.9266 0.3610
vn 0.7384 -0.3586 0.5710
vn -0.9998 0.0178 -0.0001
vn -1.0000 0.0023 -0.0048
vn -0.9997 0.0244 0.0043
vn -0.9999 0.0127 -0.0042
vn -0.9995 0.0302 -0.0002
vn -1.0000 0.0040 -0.0001
vn -0.9962 0.0839 -0.0217
vn -0.9994 -0.0329 -0.0124
vn -0.9981 -0.0036 -0.0617
vn -1.0000 0.0050 -0.0027
vn -0.9989 0.0437 -0.0188
vn -0.9988 0.0481 -0.0033
vn -0.9999 -0.0166 0.0013
vn -0.9993 0.0374 0.0009
vn -1.0000 -0.0031 0.0012
vn 0.1211 -0.0000 -0.9926
vn 0.0885 -0.2172 0.9721
vn -0.0218 -0.9323 -0.3610
vn 0.2504 0.3272 0.9112
vn 0.2005 -0.0000 -0.9797
vn -0.0202 -0.9234 0.3832
vt 0.875000 0.687500
vt 0.812500 0.750000
vt 0.812500 0.687500
vt 0.625000 0.937500
vt 0.500000 1.000000
vt 0.500000 0.937500
vt 0.625000 0.187500
vt 0.500000 0.250000
vt 0.500000 0.187500
vt 0.343750 0.687500
vt 0.375000 0.750000
vt 0.343750 0.750000
vt 0.500000 0.687500
vt 0.625000 0.750000
vt 0.500000 0.750000
vt 0.500000 0.468750
vt 0.625000 0.500000
vt 0.500000 0.500000
vt 0.500000 0.312500
vt 0.625000 0.375000
vt 0.500000 0.375000
vt 0.187500 0.687500
vt 0.250000 0.750000
vt 0.187500 0.750000
vt 0.625000 0.812500
vt 0.500000 0.875000
vt 0.500000 0.812500
vt 0.687500 0.687500
vt 0.750000 0.750000
vt 0.687500 0.750000
vt 0.656250 0.750000
vt 0.656250 0.687500
vt 0.625000 0.781250
vt 0.500000 0.781250
vt 0.625000 0.437500
vt 0.500000 0.437500
vt 0.312500 0.687500
vt 0.250000 0.687500
vt 0.312500 0.562500
vt 0.250000 0.625000
vt 0.250000 0.562500
vt 0.656250 0.562500
vt 0.687500 0.625000
vt 0.656250 0.625000
vt 0.750000 0.562500
vt 0.687500 0.562500
vt 0.187500 0.562500
vt 0.187500 0.625000
vt 0.625000 0.687500
vt 0.625000 0.625000
vt 0.375000 0.562500
vt 0.343750 0.625000
vt 0.343750 0.562500
vt 0.812500 0.562500
vt 0.875000 0.625000
vt 0.812500 0.625000
vt 0.750000 0.625000
vt 0.125000 0.562500
vt 0.125000 0.625000
vt 0.125000 0.687500
vt 0.125000 0.750000
vt 0.625000 0.312500
vt 0.625000 0.875000
vt 0.750000 0.687500
vt 0.125000 0.500000
vt 0.750000 0.500000
vt 0.812500 0.500000
vt 0.875000 0.562500
vt 0.375000 0.500000
vt 0.343750 0.500000
vt 0.500000 0.562500
vt 0.187500 0.500000
vt 0.687500 0.500000
vt 0.656250 0.500000
vt 0.312500 0.500000
vt 0.250000 0.500000
vt 0.500000 0.000000
vt 0.625000 0.062500
vt 0.500000 0.062500
vt 0.312500 0.625000
vt 0.500000 0.625000
vt 0.375000 0.687500
vt 0.375000 0.625000
vt 0.500000 0.125000
vt 0.375000 0.187500
vt 0.375000 0.125000
vt 0.375000 0.937500
vt 0.375000 0.875000
vt 0.375000 0.250000
vt 0.375000 0.312500
vt 0.375000 0.062500
vt 0.375000 0.375000
vt 0.375000 0.437500
vt 0.375000 0.812500
vt 0.375000 0.781250
vt 0.375000 0.468750
vt 0.375000 1.000000
vt 0.625000 0.562500
vt 0.596318 0.069696
vt 0.528676 0.070707
vt 0.528733 0.125005
vt 0.398923 0.224562
vt 0.398909 0.210995
vt 0.476401 0.047894
vt 0.398512 0.039279
vt 0.625000 0.125000
vt 0.596267 0.124990
vt 0.596218 0.180299
vt 0.528788 0.179286
vt 0.375000 0.000000
vt 0.398494 0.025111
vt 0.476143 0.233858
vt 0.476158 0.202242
vt 0.476420 0.015985
vt 0.625000 0.468750
vt 0.312500 0.750000
vt 0.875000 0.750000
vt 0.625000 1.000000
vt 0.625000 0.250000
vt 0.875000 0.500000
vt 0.625000 0.000000
s 0
usemtl Material
f 47/1/1 26/2/1 50/3/1
f 26/4/2 52/5/2 62/6/2
f 31/7/3 54/8/3 64/9/3
f 124/10/4 4/11/4 115/12/4
f 66/13/5 3/14/5 53/15/5
f 126/16/6 1/17/6 51/18/6
f 61/19/7 12/20/7 55/21/7
f 49/22/8 11/23/8 27/24/8
f 16/25/9 56/26/9 57/27/9
f 45/28/10 10/29/10 16/30/10
f 45/28/11 118/31/11 123/32/11
f 118/33/12 57/27/12 125/34/12
f 55/21/13 14/35/13 58/36/13
f 46/37/14 11/23/14 43/38/14
f 38/39/15 21/40/15 35/41/15
f 122/42/11 23/43/11 119/44/11
f 36/45/16 23/43/16 37/46/16
f 40/47/17 21/40/17 29/48/17
f 42/49/18 68/50/18 18/50/18
f 32/51/19 120/52/19 121/53/19
f 64/9/20 89/7/20 31/7/20
f 39/54/21 19/55/21 30/56/21
f 36/45/22 30/56/22 22/57/22
f 33/58/23 29/48/23 17/59/23
f 41/60/24 27/24/24 8/61/24
f 54/8/25 28/62/25 61/19/25
f 10/63/26 62/6/26 56/26/26
f 50/3/27 10/29/27 44/64/27
f 6/65/23 40/47/23 33/58/23
f 12/66/28 39/54/28 36/45/28
f 28/67/29 31/68/29 39/54/29
f 2/69/30 121/53/30 117/70/30
f 1/17/5 63/71/5 51/18/5
f 25/72/17 35/41/17 40/47/17
f 12/66/10 37/46/10 14/73/10
f 116/74/11 37/46/11 122/42/11
f 15/75/31 35/41/31 9/76/31
f 31/68/32 88/55/32 19/55/32
f 30/56/22 44/64/22 22/57/22
f 17/59/23 49/22/23 41/60/23
f 52/77/33 47/78/33 65/79/33
f 24/80/15 43/38/15 21/40/15
f 23/43/11 123/32/11 119/44/11
f 22/57/16 45/28/16 23/43/16
f 29/48/17 43/38/17 49/22/17
f 59/81/34 72/13/34 66/13/34
f 120/52/19 48/82/19 124/10/19
f 19/55/21 50/3/21 30/56/21
f 59/81/35 48/82/35 20/83/35
f 33/58/36 102/65/36 6/65/36
f 60/84/37 33/85/37 17/86/37
f 2/69/35 63/71/35 32/51/35
f 56/26/38 27/87/38 11/88/38
f 6/89/39 61/19/39 25/90/39
f 41/91/37 60/84/37 17/86/37
f 63/71/35 20/83/35 32/51/35
f 9/92/13 58/36/13 15/93/13
f 125/34/40 13/94/40 115/95/40
f 57/27/9 11/88/9 13/94/9
f 25/90/13 55/21/13 9/92/13
f 117/96/41 51/18/41 2/69/41
f 66/13/35 4/11/35 48/82/35
f 65/79/42 106/77/42 52/77/42
f 62/6/43 8/97/43 27/87/43
f 67/98/5 70/81/5 71/71/5
f 68/50/5 72/13/5 70/81/5
f 63/71/34 70/81/34 59/81/34
f 34/98/9 71/71/9 63/71/9
f 18/50/18 67/98/18 34/98/18
f 42/49/13 72/13/13 69/49/13
f 73/99/44 98/100/44 78/100/44
f 92/101/45 98/100/45 94/101/45
f 65/79/46 76/84/46 60/84/46
f 19/55/32 87/1/32 47/1/32
f 60/84/46 90/9/46 64/9/46
f 65/79/47 87/78/47 91/79/47
f 82/102/48 111/103/48 110/102/48
f 85/104/49 107/105/49 113/104/49
f 41/91/50 105/79/50 65/79/50
f 8/61/36 99/60/36 41/60/36
f 8/97/51 106/5/51 100/97/51
f 64/9/52 103/85/52 33/85/52
f 54/8/42 104/9/42 64/9/42
f 54/8/53 102/89/53 101/8/53
f 73/99/54 88/106/54 74/107/54
f 75/108/55 88/106/55 89/7/55
f 75/108/56 90/9/56 77/109/56
f 73/99/57 91/79/57 87/78/57
f 77/109/58 76/84/58 92/101/58
f 78/100/59 76/84/59 91/79/59
f 98/100/58 93/107/58 94/101/58
f 93/107/58 97/109/58 94/101/58
f 74/107/60 96/108/60 93/107/60
f 77/109/45 94/101/45 97/109/45
f 77/109/61 96/108/61 75/108/61
f 73/99/60 93/107/60 95/99/60
f 79/105/62 100/110/62 80/111/62
f 81/112/63 102/89/63 82/102/63
f 83/103/64 102/89/64 103/85/64
f 83/103/65 104/9/65 84/113/65
f 79/105/66 105/79/66 99/91/66
f 86/114/67 100/110/67 106/77/67
f 86/114/68 105/79/68 85/104/68
f 81/112/69 104/9/69 101/8/69
f 108/111/70 113/104/70 107/105/70
f 112/113/71 110/102/71 111/103/71
f 79/105/72 108/111/72 107/105/72
f 84/113/73 109/112/73 112/113/73
f 86/114/74 108/111/74 80/111/74
f 83/103/75 112/113/75 111/103/75
f 82/102/76 109/112/76 81/112/76
f 86/114/77 113/104/77 114/114/77
f 15/93/78 126/16/78 117/96/78
f 53/15/79 115/95/79 4/11/79
f 24/80/19 124/10/19 46/37/19
f 119/44/11 42/49/11 18/50/11
f 1/17/11 122/42/11 34/98/11
f 117/70/80 38/39/80 15/75/80
f 121/53/19 24/80/19 38/39/19
f 34/98/11 119/44/11 18/50/11
f 3/14/81 125/34/81 53/15/81
f 123/32/11 3/14/11 42/49/11
f 58/36/82 116/115/82 126/16/82
f 46/37/83 115/12/83 13/116/83
f 47/1/84 7/117/84 26/2/84
f 26/4/85 7/118/85 52/5/85
f 31/7/86 5/119/86 54/8/86
f 124/10/19 48/82/19 4/11/19
f 66/13/5 42/49/5 3/14/5
f 126/16/87 116/115/87 1/17/87
f 61/19/88 28/62/88 12/20/88
f 49/22/89 43/38/89 11/23/89
f 16/25/9 10/63/9 56/26/9
f 45/28/90 44/64/90 10/29/90
f 45/28/11 16/30/11 118/31/11
f 118/33/91 16/25/91 57/27/91
f 55/21/13 12/20/13 14/35/13
f 46/37/14 13/116/14 11/23/14
f 38/39/15 24/80/15 21/40/15
f 122/42/11 37/46/11 23/43/11
f 36/45/16 22/57/16 23/43/16
f 40/47/92 35/41/92 21/40/92
f 42/49/18 69/49/18 68/50/18
f 32/51/19 20/83/19 120/52/19
f 64/9/93 90/9/93 89/7/93
f 39/54/94 31/68/94 19/55/94
f 36/45/95 39/54/95 30/56/95
f 33/58/17 40/47/17 29/48/17
f 41/60/17 49/22/17 27/24/17
f 54/8/96 5/119/96 28/62/96
f 10/63/97 26/4/97 62/6/97
f 50/3/98 26/2/98 10/29/98
f 6/65/99 25/72/99 40/47/99
f 12/66/100 28/67/100 39/54/100
f 28/67/101 5/120/101 31/68/101
f 2/69/19 32/51/19 121/53/19
f 1/17/5 34/98/5 63/71/5
f 25/72/102 9/76/102 35/41/102
f 12/66/103 36/45/103 37/46/103
f 116/74/11 14/73/11 37/46/11
f 15/75/31 38/39/31 35/41/31
f 31/68/32 89/68/32 88/55/32
f 30/56/104 50/3/104 44/64/104
f 17/59/17 29/48/17 49/22/17
f 52/77/105 7/121/105 47/78/105
f 24/80/15 46/37/15 43/38/15
f 23/43/11 45/28/11 123/32/11
f 22/57/16 44/64/16 45/28/16
f 29/48/92 21/40/92 43/38/92
f 59/81/34 70/81/34 72/13/34
f 120/52/19 20/83/19 48/82/19
f 19/55/106 47/1/106 50/3/106
f 59/81/35 66/13/35 48/82/35
f 33/58/36 103/58/36 102/65/36
f 60/84/107 64/9/107 33/85/107
f 2/69/35 51/18/35 63/71/35
f 56/26/108 62/6/108 27/87/108
f 6/89/109 54/8/109 61/19/109
f 41/91/110 65/79/110 60/84/110
f 63/71/35 59/81/35 20/83/35
f 9/92/13 55/21/13 58/36/13
f 125/34/111 57/27/111 13/94/111
f 57/27/9 56/26/9 11/88/9
f 25/90/112 61/19/112 55/21/112
f 117/96/113 126/16/113 51/18/113
f 66/13/35 53/15/35 4/11/35
f 65/79/42 105/79/42 106/77/42
f 62/6/114 52/5/114 8/97/114
f 67/98/5 68/50/5 70/81/5
f 68/50/5 69/49/5 72/13/5
f 63/71/34 71/71/34 70/81/34
f 34/98/9 67/98/9 71/71/9
f 18/50/18 68/50/18 67/98/18
f 42/49/13 66/13/13 72/13/13
f 73/99/44 95/99/44 98/100/44
f 92/101/45 78/100/45 98/100/45
f 65/79/46 91/79/46 76/84/46
f 19/55/32 88/55/32 87/1/32
f 60/84/46 76/84/46 90/9/46
f 65/79/115 47/78/115 87/78/115
f 82/102/48 83/103/48 111/103/48
f 85/104/49 79/105/49 107/105/49
f 41/91/50 99/91/50 105/79/50
f 8/61/36 100/61/36 99/60/36
f 8/97/51 52/5/51 106/5/51
f 64/9/52 104/9/52 103/85/52
f 54/8/42 101/8/42 104/9/42
f 54/8/53 6/89/53 102/89/53
f 73/99/116 87/78/116 88/106/116
f 75/108/54 74/107/54 88/106/54
f 75/108/117 89/7/117 90/9/117
f 73/99/118 78/100/118 91/79/118
f 77/109/119 90/9/119 76/84/119
f 78/100/58 92/101/58 76/84/58
f 98/100/120 95/99/120 93/107/120
f 93/107/121 96/108/121 97/109/121
f 74/107/60 75/108/60 96/108/60
f 77/109/45 92/101/45 94/101/45
f 77/109/61 97/109/61 96/108/61
f 73/99/60 74/107/60 93/107/60
f 79/105/122 99/91/122 100/110/122
f 81/112/123 101/8/123 102/89/123
f 83/103/124 82/102/124 102/89/124
f 83/103/125 103/85/125 104/9/125
f 79/105/126 85/104/126 105/79/126
f 86/114/127 80/111/127 100/110/127
f 86/114/59 106/77/59 105/79/59
f 81/112/128 84/113/128 104/9/128
f 108/111/129 114/114/129 113/104/129
f 112/113/130 109/112/130 110/102/130
f 79/105/72 80/111/72 108/111/72
f 84/113/73 81/112/73 109/112/73
f 86/114/74 114/114/74 108/111/74
f 83/103/75 84/113/75 112/113/75
f 82/102/76 110/102/76 109/112/76
f 86/114/77 85/104/77 113/104/77
f 15/93/131 58/36/131 126/16/131
f 53/15/132 125/34/132 115/95/132
f 24/80/19 120/52/19 124/10/19
f 119/44/11 123/32/11 42/49/11
f 1/17/11 116/74/11 122/42/11
f 117/70/133 121/53/133 38/39/133
f 121/53/19 120/52/19 24/80/19
f 34/98/11 122/42/11 119/44/11
f 3/14/134 118/33/134 125/34/134
f 123/32/11 118/31/11 3/14/11
f 58/36/135 14/35/135 116/115/135
f 46/37/136 124/10/136 115/12/136
